<svg xmlns="http://www.w3.org/2000/svg" width="1600" height="900" viewBox="0 0 1600 900"><defs>
      <marker id="arrow" markerWidth="11" markerHeight="11" refX="9" refY="5.5" orient="auto" markerUnits="strokeWidth"><path d="M0,0 L10,5.5 L0,11 Z" fill="context-stroke"/></marker>
    </defs><rect width="1600" height="900" fill="#FFFFFF"/><rect x="0" y="0" width="6" height="900" fill="#315F87"/><text x="84" y="48" fill="#315F87" font-family="Noto Sans CJK KR, Malgun Gothic, Aptos, Arial, sans-serif" font-size="15" font-weight="800" text-anchor="start" letter-spacing="1.8">IMPROVE · 아키텍처</text><text x="1516" y="48" fill="#667085" font-family="Noto Sans CJK KR, Malgun Gothic, Aptos, Arial, sans-serif" font-size="16" font-weight="700" text-anchor="end" letter-spacing="1.2">04</text><text x="84" y="108" fill="#111827" font-family="Noto Sans CJK KR, Malgun Gothic, Aptos, Arial, sans-serif" font-size="38" font-weight="750" text-anchor="start" letter-spacing="-0.4">해결책 1: ACC 제어 정보를 데이터와 함께 전달</text><line x1="84" y1="132" x2="1516" y2="132" stroke="#BCC5D0" stroke-width="2" stroke-linecap="round"/><rect x="84" y="150" width="1432" height="118" rx="4" fill="#FAFAFA" stroke="#BCC5D0" stroke-width="2"/><circle cx="112" cy="177" r="4.5" fill="#315F87" stroke="none" stroke-width="0"/><text x="132" y="184" fill="#1F2937" font-family="Noto Sans CJK KR, Malgun Gothic, Aptos, Arial, sans-serif" font-size="20" font-weight="500" text-anchor="start">기존: 중앙 ACC RD/WR 추적기가 전체 파이프라인 진행을 제어했다.</text><circle cx="112" cy="209" r="4.5" fill="#315F87" stroke="none" stroke-width="0"/><text x="132" y="216" fill="#1F2937" font-family="Noto Sans CJK KR, Malgun Gothic, Aptos, Arial, sans-serif" font-size="20" font-weight="500" text-anchor="start">변경: ACC 주소, R/W, work_seq, generation, last를 패킷과 함께 전달한다.</text><circle cx="112" cy="241" r="4.5" fill="#315F87" stroke="none" stroke-width="0"/><text x="132" y="248" fill="#1F2937" font-family="Noto Sans CJK KR, Malgun Gothic, Aptos, Arial, sans-serif" font-size="20" font-weight="500" text-anchor="start">결과: 데이터와 제어가 같은 레지스터를 지나 로컬 ACC 백엔드에 정렬되어 도착한다.</text><text x="92" y="296" fill="#954F4F" font-family="Noto Sans CJK KR, Malgun Gothic, Aptos, Arial, sans-serif" font-size="15" font-weight="800" text-anchor="start" letter-spacing="1.1">기존 · 중앙 집중식 ACC RD / WR 제어</text><text x="650" y="296" fill="#315F87" font-family="Noto Sans CJK KR, Malgun Gothic, Aptos, Arial, sans-serif" font-size="15" font-weight="800" text-anchor="start" letter-spacing="1.1">변경 후 · 데이터와 함께 흐르는 제어 토큰</text><line x1="605" y1="302" x2="605" y2="806" stroke="#BCC5D0" stroke-width="2" stroke-linecap="round"/><rect x="190" y="328" width="270" height="145" rx="3" fill="#FFF8EE" stroke="#954F4F" stroke-width="2"/><text x="204" y="355" fill="#954F4F" font-family="Noto Sans CJK KR, Malgun Gothic, Aptos, Arial, sans-serif" font-size="16" font-weight="750" text-anchor="start">중앙 ACC RD / WR</text><text x="204" y="384" fill="#667085" font-family="Noto Sans CJK KR, Malgun Gothic, Aptos, Arial, sans-serif" font-size="12" font-weight="600" text-anchor="start">rd_cnt</text><rect x="282" y="366" width="16" height="18" rx="1" fill="#FFFFFF" stroke="#954F4F" stroke-width="2"/><rect x="304" y="366" width="16" height="18" rx="1" fill="#FFFFFF" stroke="#954F4F" stroke-width="2"/><rect x="326" y="366" width="16" height="18" rx="1" fill="#FFFFFF" stroke="#954F4F" stroke-width="2"/><rect x="348" y="366" width="16" height="18" rx="1" fill="#FFFFFF" stroke="#954F4F" stroke-width="2"/><text x="204" y="418.3333333333333" fill="#667085" font-family="Noto Sans CJK KR, Malgun Gothic, Aptos, Arial, sans-serif" font-size="12" font-weight="600" text-anchor="start">wr_cnt</text><rect x="282" y="400.3333333333333" width="16" height="18" rx="1" fill="#FFFFFF" stroke="#954F4F" stroke-width="2"/><rect x="304" y="400.3333333333333" width="16" height="18" rx="1" fill="#FFFFFF" stroke="#954F4F" stroke-width="2"/><rect x="326" y="400.3333333333333" width="16" height="18" rx="1" fill="#FFFFFF" stroke="#954F4F" stroke-width="2"/><rect x="348" y="400.3333333333333" width="16" height="18" rx="1" fill="#FFFFFF" stroke="#954F4F" stroke-width="2"/><text x="204" y="452.6666666666667" fill="#667085" font-family="Noto Sans CJK KR, Malgun Gothic, Aptos, Arial, sans-serif" font-size="12" font-weight="600" text-anchor="start">empty</text><rect x="282" y="434.6666666666667" width="16" height="18" rx="1" fill="#FFFFFF" stroke="#954F4F" stroke-width="2"/><rect x="304" y="434.6666666666667" width="16" height="18" rx="1" fill="#FFFFFF" stroke="#954F4F" stroke-width="2"/><rect x="326" y="434.6666666666667" width="16" height="18" rx="1" fill="#FFFFFF" stroke="#954F4F" stroke-width="2"/><rect x="348" y="434.6666666666667" width="16" height="18" rx="1" fill="#FFFFFF" stroke="#954F4F" stroke-width="2"/><rect x="98" y="548" width="105" height="120" rx="3" fill="#FFFFFF" stroke="#BCC5D0" stroke-width="2"/><rect x="110" y="558" width="81" height="18" rx="1" fill="#E8EFF5" stroke="#466E76" stroke-width="1"/><rect x="110" y="581" width="81" height="18" rx="1" fill="#F7F7F7" stroke="#466E76" stroke-width="1"/><rect x="110" y="604" width="81" height="18" rx="1" fill="#F7F7F7" stroke="#466E76" stroke-width="1"/><rect x="110" y="627" width="81" height="18" rx="1" fill="#F7F7F7" stroke="#466E76" stroke-width="1"/><text x="150.5" y="690" fill="#1F2937" font-family="Noto Sans CJK KR, Malgun Gothic, Aptos, Arial, sans-serif" font-size="16" font-weight="650" text-anchor="middle">입력 FIFO</text><rect x="250" y="535" width="190" height="135" rx="3" fill="#FFFFFF" stroke="#315F87" stroke-width="2"/><rect x="260" y="545" width="35" height="31.666666666666668" rx="1" fill="#EEF3F7" stroke="#6F8DA7" stroke-width="1"/><text x="277.5" y="565.8333333333334" fill="#315F87" font-family="Noto Sans CJK KR, Malgun Gothic, Aptos, Arial, sans-serif" font-size="14" font-weight="700" text-anchor="middle">×+</text><rect x="305" y="545" width="35" height="31.666666666666668" rx="1" fill="#EEF3F7" stroke="#6F8DA7" stroke-width="1"/><text x="322.5" y="565.8333333333334" fill="#315F87" font-family="Noto Sans CJK KR, Malgun Gothic, Aptos, Arial, sans-serif" font-size="14" font-weight="700" text-anchor="middle">×+</text><rect x="350" y="545" width="35" height="31.666666666666668" rx="1" fill="#EEF3F7" stroke="#6F8DA7" stroke-width="1"/><text x="367.5" y="565.8333333333334" fill="#315F87" font-family="Noto Sans CJK KR, Malgun Gothic, Aptos, Arial, sans-serif" font-size="14" font-weight="700" text-anchor="middle">×+</text><rect x="395" y="545" width="35" height="31.666666666666668" rx="1" fill="#EEF3F7" stroke="#6F8DA7" stroke-width="1"/><text x="412.5" y="565.8333333333334" fill="#315F87" font-family="Noto Sans CJK KR, Malgun Gothic, Aptos, Arial, sans-serif" font-size="14" font-weight="700" text-anchor="middle">×+</text><rect x="260" y="586.6666666666666" width="35" height="31.666666666666668" rx="1" fill="#EEF3F7" stroke="#6F8DA7" stroke-width="1"/><text x="277.5" y="607.5" fill="#315F87" font-family="Noto Sans CJK KR, Malgun Gothic, Aptos, Arial, sans-serif" font-size="14" font-weight="700" text-anchor="middle">×+</text><rect x="305" y="586.6666666666666" width="35" height="31.666666666666668" rx="1" fill="#EEF3F7" stroke="#6F8DA7" stroke-width="1"/><text x="322.5" y="607.5" fill="#315F87" font-family="Noto Sans CJK KR, Malgun Gothic, Aptos, Arial, sans-serif" font-size="14" font-weight="700" text-anchor="middle">×+</text><rect x="350" y="586.6666666666666" width="35" height="31.666666666666668" rx="1" fill="#EEF3F7" stroke="#6F8DA7" stroke-width="1"/><text x="367.5" y="607.5" fill="#315F87" font-family="Noto Sans CJK KR, Malgun Gothic, Aptos, Arial, sans-serif" font-size="14" font-weight="700" text-anchor="middle">×+</text><rect x="395" y="586.6666666666666" width="35" height="31.666666666666668" rx="1" fill="#EEF3F7" stroke="#6F8DA7" stroke-width="1"/><text x="412.5" y="607.5" fill="#315F87" font-family="Noto Sans CJK KR, Malgun Gothic, Aptos, Arial, sans-serif" font-size="14" font-weight="700" text-anchor="middle">×+</text><rect x="260" y="628.3333333333334" width="35" height="31.666666666666668" rx="1" fill="#EEF3F7" stroke="#6F8DA7" stroke-width="1"/><text x="277.5" y="649.1666666666667" fill="#315F87" font-family="Noto Sans CJK KR, Malgun Gothic, Aptos, Arial, sans-serif" font-size="14" font-weight="700" text-anchor="middle">×+</text><rect x="305" y="628.3333333333334" width="35" height="31.666666666666668" rx="1" fill="#EEF3F7" stroke="#6F8DA7" stroke-width="1"/><text x="322.5" y="649.1666666666667" fill="#315F87" font-family="Noto Sans CJK KR, Malgun Gothic, Aptos, Arial, sans-serif" font-size="14" font-weight="700" text-anchor="middle">×+</text><rect x="350" y="628.3333333333334" width="35" height="31.666666666666668" rx="1" fill="#EEF3F7" stroke="#6F8DA7" stroke-width="1"/><text x="367.5" y="649.1666666666667" fill="#315F87" font-family="Noto Sans CJK KR, Malgun Gothic, Aptos, Arial, sans-serif" font-size="14" font-weight="700" text-anchor="middle">×+</text><rect x="395" y="628.3333333333334" width="35" height="31.666666666666668" rx="1" fill="#EEF3F7" stroke="#6F8DA7" stroke-width="1"/><text x="412.5" y="649.1666666666667" fill="#315F87" font-family="Noto Sans CJK KR, Malgun Gothic, Aptos, Arial, sans-serif" font-size="14" font-weight="700" text-anchor="middle">×+</text><text x="345" y="692" fill="#1F2937" font-family="Noto Sans CJK KR, Malgun Gothic, Aptos, Arial, sans-serif" font-size="16" font-weight="650" text-anchor="middle">MAC 연산 배열</text><rect x="486" y="540" width="42" height="130" rx="2" fill="#F7F7F7" stroke="#55735A" stroke-width="2"/><line x1="486" y1="566" x2="528" y2="566" stroke="#BCC5D0" stroke-width="1" stroke-linecap="round"/><line x1="486" y1="592" x2="528" y2="592" stroke="#BCC5D0" stroke-width="1" stroke-linecap="round"/><line x1="486" y1="618" x2="528" y2="618" stroke="#BCC5D0" stroke-width="1" stroke-linecap="round"/><line x1="486" y1="644" x2="528" y2="644" stroke="#BCC5D0" stroke-width="1" stroke-linecap="round"/><text x="507" y="532" fill="#55735A" font-family="Noto Sans CJK KR, Malgun Gothic, Aptos, Arial, sans-serif" font-size="12" font-weight="700" text-anchor="middle">B0</text><rect x="536" y="540" width="42" height="130" rx="2" fill="#F7F7F7" stroke="#55735A" stroke-width="2"/><line x1="536" y1="566" x2="578" y2="566" stroke="#BCC5D0" stroke-width="1" stroke-linecap="round"/><line x1="536" y1="592" x2="578" y2="592" stroke="#BCC5D0" stroke-width="1" stroke-linecap="round"/><line x1="536" y1="618" x2="578" y2="618" stroke="#BCC5D0" stroke-width="1" stroke-linecap="round"/><line x1="536" y1="644" x2="578" y2="644" stroke="#BCC5D0" stroke-width="1" stroke-linecap="round"/><text x="557" y="532" fill="#55735A" font-family="Noto Sans CJK KR, Malgun Gothic, Aptos, Arial, sans-serif" font-size="12" font-weight="700" text-anchor="middle">B1</text><text x="532" y="692" fill="#1F2937" font-family="Noto Sans CJK KR, Malgun Gothic, Aptos, Arial, sans-serif" font-size="16" font-weight="650" text-anchor="middle">ACC SRAM</text><line x1="203" y1="608" x2="250" y2="608" stroke="#315F87" stroke-width="3" stroke-linecap="round" marker-end="url(#arrow)"/><line x1="440" y1="608" x2="486" y2="608" stroke="#315F87" stroke-width="3" stroke-linecap="round" marker-end="url(#arrow)"/><line x1="325" y1="473" x2="150" y2="548" stroke="#954F4F" stroke-width="3" stroke-linecap="round"/><line x1="325" y1="473" x2="345" y2="535" stroke="#954F4F" stroke-width="3" stroke-linecap="round"/><line x1="325" y1="473" x2="532" y2="540" stroke="#954F4F" stroke-width="3" stroke-linecap="round"/><text x="120" y="505" fill="#954F4F" font-family="Noto Sans CJK KR, Malgun Gothic, Aptos, Arial, sans-serif" font-size="13" font-weight="700" text-anchor="start">전역 활성화</text><text x="344" y="512" fill="#954F4F" font-family="Noto Sans CJK KR, Malgun Gothic, Aptos, Arial, sans-serif" font-size="13" font-weight="700" text-anchor="middle">rd / wr 카운트</text><text x="530" y="515" fill="#954F4F" font-family="Noto Sans CJK KR, Malgun Gothic, Aptos, Arial, sans-serif" font-size="13" font-weight="700" text-anchor="middle">pipeline_empty</text><line x1="105" y1="724" x2="568" y2="724" stroke="#954F4F" stroke-width="6" stroke-linecap="round"/><text x="336" y="754" fill="#954F4F" font-family="Noto Sans CJK KR, Malgun Gothic, Aptos, Arial, sans-serif" font-size="16" font-weight="700" text-anchor="middle">하나의 늦은 트랜잭션이 공유 상태 전체를 막음</text><text x="336" y="785" fill="#667085" font-family="Noto Sans CJK KR, Malgun Gothic, Aptos, Arial, sans-serif" font-size="15" font-weight="500" text-anchor="middle">제어 정보가 패킷에 붙지 않고 중앙에서 추론된다.</text><text x="650" y="329" fill="#315F87" font-family="Noto Sans CJK KR, Malgun Gothic, Aptos, Arial, sans-serif" font-size="13" font-weight="800" text-anchor="start">데이터</text><rect x="650" y="365" width="78" height="105" rx="3" fill="#FFFFFF" stroke="#BCC5D0" stroke-width="2"/><rect x="662" y="375" width="54" height="14.25" rx="1" fill="#E8EFF5" stroke="#466E76" stroke-width="1"/><rect x="662" y="394.25" width="54" height="14.25" rx="1" fill="#F7F7F7" stroke="#466E76" stroke-width="1"/><rect x="662" y="413.5" width="54" height="14.25" rx="1" fill="#F7F7F7" stroke="#466E76" stroke-width="1"/><rect x="662" y="432.75" width="54" height="14.25" rx="1" fill="#F7F7F7" stroke="#466E76" stroke-width="1"/><text x="689" y="492" fill="#1F2937" font-family="Noto Sans CJK KR, Malgun Gothic, Aptos, Arial, sans-serif" font-size="16" font-weight="650" text-anchor="middle">패킷</text><line x1="728" y1="417" x2="755" y2="417" stroke="#315F87" stroke-width="3" stroke-linecap="round" marker-end="url(#arrow)"/><circle cx="785" cy="417" r="28" fill="#FFFFFF" stroke="#466E76" stroke-width="2"/><text x="785" y="424" fill="#466E76" font-family="Noto Sans CJK KR, Malgun Gothic, Aptos, Arial, sans-serif" font-size="24" font-weight="750" text-anchor="middle">×</text><text x="785" y="466" fill="#667085" font-family="Noto Sans CJK KR, Malgun Gothic, Aptos, Arial, sans-serif" font-size="14" font-weight="600" text-anchor="middle">스케일</text><line x1="813" y1="417" x2="835" y2="417" stroke="#315F87" stroke-width="3" stroke-linecap="round" marker-end="url(#arrow)"/><rect x="835" y="356" width="38" height="122" rx="2" fill="#FFFFFF" stroke="#315F87" stroke-width="2"/><line x1="835" y1="386.5" x2="873" y2="386.5" stroke="#BCC5D0" stroke-width="1" stroke-linecap="round"/><line x1="835" y1="417" x2="873" y2="417" stroke="#BCC5D0" stroke-width="1" stroke-linecap="round"/><line x1="835" y1="447.5" x2="873" y2="447.5" stroke="#BCC5D0" stroke-width="1" stroke-linecap="round"/><line x1="854" y1="356" x2="854" y2="478" stroke="#BCC5D0" stroke-width="1" stroke-linecap="round"/><text x="854" y="496" fill="#667085" font-family="Noto Sans CJK KR, Malgun Gothic, Aptos, Arial, sans-serif" font-size="14" font-weight="600" text-anchor="middle">R0</text><line x1="873" y1="417" x2="900" y2="417" stroke="#315F87" stroke-width="3" stroke-linecap="round" marker-end="url(#arrow)"/><rect x="900" y="344" width="178" height="145" rx="3" fill="#FFFFFF" stroke="#315F87" stroke-width="2"/><rect x="910" y="354" width="32" height="35" rx="1" fill="#EEF3F7" stroke="#6F8DA7" stroke-width="1"/><text x="926" y="376.5" fill="#315F87" font-family="Noto Sans CJK KR, Malgun Gothic, Aptos, Arial, sans-serif" font-size="14" font-weight="700" text-anchor="middle">×+</text><rect x="952" y="354" width="32" height="35" rx="1" fill="#EEF3F7" stroke="#6F8DA7" stroke-width="1"/><text x="968" y="376.5" fill="#315F87" font-family="Noto Sans CJK KR, Malgun Gothic, Aptos, Arial, sans-serif" font-size="14" font-weight="700" text-anchor="middle">×+</text><rect x="994" y="354" width="32" height="35" rx="1" fill="#EEF3F7" stroke="#6F8DA7" stroke-width="1"/><text x="1010" y="376.5" fill="#315F87" font-family="Noto Sans CJK KR, Malgun Gothic, Aptos, Arial, sans-serif" font-size="14" font-weight="700" text-anchor="middle">×+</text><rect x="1036" y="354" width="32" height="35" rx="1" fill="#EEF3F7" stroke="#6F8DA7" stroke-width="1"/><text x="1052" y="376.5" fill="#315F87" font-family="Noto Sans CJK KR, Malgun Gothic, Aptos, Arial, sans-serif" font-size="14" font-weight="700" text-anchor="middle">×+</text><rect x="910" y="399" width="32" height="35" rx="1" fill="#EEF3F7" stroke="#6F8DA7" stroke-width="1"/><text x="926" y="421.5" fill="#315F87" font-family="Noto Sans CJK KR, Malgun Gothic, Aptos, Arial, sans-serif" font-size="14" font-weight="700" text-anchor="middle">×+</text><rect x="952" y="399" width="32" height="35" rx="1" fill="#EEF3F7" stroke="#6F8DA7" stroke-width="1"/><text x="968" y="421.5" fill="#315F87" font-family="Noto Sans CJK KR, Malgun Gothic, Aptos, Arial, sans-serif" font-size="14" font-weight="700" text-anchor="middle">×+</text><rect x="994" y="399" width="32" height="35" rx="1" fill="#EEF3F7" stroke="#6F8DA7" stroke-width="1"/><text x="1010" y="421.5" fill="#315F87" font-family="Noto Sans CJK KR, Malgun Gothic, Aptos, Arial, sans-serif" font-size="14" font-weight="700" text-anchor="middle">×+</text><rect x="1036" y="399" width="32" height="35" rx="1" fill="#EEF3F7" stroke="#6F8DA7" stroke-width="1"/><text x="1052" y="421.5" fill="#315F87" font-family="Noto Sans CJK KR, Malgun Gothic, Aptos, Arial, sans-serif" font-size="14" font-weight="700" text-anchor="middle">×+</text><rect x="910" y="444" width="32" height="35" rx="1" fill="#EEF3F7" stroke="#6F8DA7" stroke-width="1"/><text x="926" y="466.5" fill="#315F87" font-family="Noto Sans CJK KR, Malgun Gothic, Aptos, Arial, sans-serif" font-size="14" font-weight="700" text-anchor="middle">×+</text><rect x="952" y="444" width="32" height="35" rx="1" fill="#EEF3F7" stroke="#6F8DA7" stroke-width="1"/><text x="968" y="466.5" fill="#315F87" font-family="Noto Sans CJK KR, Malgun Gothic, Aptos, Arial, sans-serif" font-size="14" font-weight="700" text-anchor="middle">×+</text><rect x="994" y="444" width="32" height="35" rx="1" fill="#EEF3F7" stroke="#6F8DA7" stroke-width="1"/><text x="1010" y="466.5" fill="#315F87" font-family="Noto Sans CJK KR, Malgun Gothic, Aptos, Arial, sans-serif" font-size="14" font-weight="700" text-anchor="middle">×+</text><rect x="1036" y="444" width="32" height="35" rx="1" fill="#EEF3F7" stroke="#6F8DA7" stroke-width="1"/><text x="1052" y="466.5" fill="#315F87" font-family="Noto Sans CJK KR, Malgun Gothic, Aptos, Arial, sans-serif" font-size="14" font-weight="700" text-anchor="middle">×+</text><text x="989" y="511" fill="#1F2937" font-family="Noto Sans CJK KR, Malgun Gothic, Aptos, Arial, sans-serif" font-size="16" font-weight="650" text-anchor="middle">GEMM tree</text><line x1="1078" y1="417" x2="1100" y2="417" stroke="#315F87" stroke-width="3" stroke-linecap="round" marker-end="url(#arrow)"/><rect x="1100" y="356" width="38" height="122" rx="2" fill="#FFFFFF" stroke="#315F87" stroke-width="2"/><line x1="1100" y1="386.5" x2="1138" y2="386.5" stroke="#BCC5D0" stroke-width="1" stroke-linecap="round"/><line x1="1100" y1="417" x2="1138" y2="417" stroke="#BCC5D0" stroke-width="1" stroke-linecap="round"/><line x1="1100" y1="447.5" x2="1138" y2="447.5" stroke="#BCC5D0" stroke-width="1" stroke-linecap="round"/><line x1="1119" y1="356" x2="1119" y2="478" stroke="#BCC5D0" stroke-width="1" stroke-linecap="round"/><text x="1119" y="496" fill="#667085" font-family="Noto Sans CJK KR, Malgun Gothic, Aptos, Arial, sans-serif" font-size="14" font-weight="600" text-anchor="middle">R1</text><line x1="1138" y1="417" x2="1162" y2="417" stroke="#315F87" stroke-width="3" stroke-linecap="round" marker-end="url(#arrow)"/><polygon points="1162,380 1218.16,380 1240,417 1218.16,454 1162,454" fill="#FFFFFF" stroke="#946B2D" stroke-width="2"/><text x="1199.44" y="423" fill="#946B2D" font-family="Noto Sans CJK KR, Malgun Gothic, Aptos, Arial, sans-serif" font-size="14" font-weight="750" text-anchor="middle">post</text><line x1="1240" y1="417" x2="1262" y2="417" stroke="#315F87" stroke-width="3" stroke-linecap="round" marker-end="url(#arrow)"/><rect x="1262" y="356" width="38" height="122" rx="2" fill="#FFFFFF" stroke="#315F87" stroke-width="2"/><line x1="1262" y1="386.5" x2="1300" y2="386.5" stroke="#BCC5D0" stroke-width="1" stroke-linecap="round"/><line x1="1262" y1="417" x2="1300" y2="417" stroke="#BCC5D0" stroke-width="1" stroke-linecap="round"/><line x1="1262" y1="447.5" x2="1300" y2="447.5" stroke="#BCC5D0" stroke-width="1" stroke-linecap="round"/><line x1="1281" y1="356" x2="1281" y2="478" stroke="#BCC5D0" stroke-width="1" stroke-linecap="round"/><text x="1281" y="496" fill="#667085" font-family="Noto Sans CJK KR, Malgun Gothic, Aptos, Arial, sans-serif" font-size="14" font-weight="600" text-anchor="middle">R2</text><line x1="1300" y1="417" x2="1335" y2="417" stroke="#315F87" stroke-width="3" stroke-linecap="round" marker-end="url(#arrow)"/><polygon points="1335,382 1382.52,382 1401,417 1382.52,452 1335,452" fill="#FFFFFF" stroke="#946B2D" stroke-width="2"/><text x="1366.68" y="423" fill="#946B2D" font-family="Noto Sans CJK KR, Malgun Gothic, Aptos, Arial, sans-serif" font-size="14" font-weight="750" text-anchor="middle">RAW</text><line x1="1401" y1="417" x2="1420" y2="417" stroke="#55735A" stroke-width="3" stroke-linecap="round" marker-end="url(#arrow)"/><rect x="1420" y="352" width="41" height="130" rx="2" fill="#F7F7F7" stroke="#55735A" stroke-width="2"/><line x1="1420" y1="378" x2="1461" y2="378" stroke="#BCC5D0" stroke-width="1" stroke-linecap="round"/><line x1="1420" y1="404" x2="1461" y2="404" stroke="#BCC5D0" stroke-width="1" stroke-linecap="round"/><line x1="1420" y1="430" x2="1461" y2="430" stroke="#BCC5D0" stroke-width="1" stroke-linecap="round"/><line x1="1420" y1="456" x2="1461" y2="456" stroke="#BCC5D0" stroke-width="1" stroke-linecap="round"/><text x="1440.5" y="344" fill="#55735A" font-family="Noto Sans CJK KR, Malgun Gothic, Aptos, Arial, sans-serif" font-size="12" font-weight="700" text-anchor="middle">B0</text><rect x="1469" y="352" width="41" height="130" rx="2" fill="#F7F7F7" stroke="#55735A" stroke-width="2"/><line x1="1469" y1="378" x2="1510" y2="378" stroke="#BCC5D0" stroke-width="1" stroke-linecap="round"/><line x1="1469" y1="404" x2="1510" y2="404" stroke="#BCC5D0" stroke-width="1" stroke-linecap="round"/><line x1="1469" y1="430" x2="1510" y2="430" stroke="#BCC5D0" stroke-width="1" stroke-linecap="round"/><line x1="1469" y1="456" x2="1510" y2="456" stroke="#BCC5D0" stroke-width="1" stroke-linecap="round"/><text x="1489.5" y="344" fill="#55735A" font-family="Noto Sans CJK KR, Malgun Gothic, Aptos, Arial, sans-serif" font-size="12" font-weight="700" text-anchor="middle">B1</text><text x="1465" y="504" fill="#1F2937" font-family="Noto Sans CJK KR, Malgun Gothic, Aptos, Arial, sans-serif" font-size="16" font-weight="650" text-anchor="middle">ACC 뱅크</text><line x1="1420" y1="474" x2="1370" y2="474" stroke="#55735A" stroke-width="2" stroke-linecap="round" stroke-dasharray="10 9" marker-end="url(#arrow)"/><text x="1396" y="497" fill="#55735A" font-family="Noto Sans CJK KR, Malgun Gothic, Aptos, Arial, sans-serif" font-size="12" font-weight="650" text-anchor="middle">read 응답</text><text x="650" y="532" fill="#946B2D" font-family="Noto Sans CJK KR, Malgun Gothic, Aptos, Arial, sans-serif" font-size="13" font-weight="800" text-anchor="start">제어 TOKEN</text><rect x="650" y="550" width="34" height="34" rx="1" fill="#FFF8EE" stroke="#946B2D" stroke-width="1"/><text x="667" y="572" fill="#946B2D" font-family="Noto Sans CJK KR, Malgun Gothic, Aptos, Arial, sans-serif" font-size="11" font-weight="700" text-anchor="middle">addr</text><rect x="688" y="550" width="30" height="34" rx="1" fill="#FFF8EE" stroke="#946B2D" stroke-width="1"/><text x="703" y="572" fill="#946B2D" font-family="Noto Sans CJK KR, Malgun Gothic, Aptos, Arial, sans-serif" font-size="11" font-weight="700" text-anchor="middle">R/W</text><rect x="722" y="550" width="28" height="34" rx="1" fill="#FFF8EE" stroke="#946B2D" stroke-width="1"/><text x="736" y="572" fill="#946B2D" font-family="Noto Sans CJK KR, Malgun Gothic, Aptos, Arial, sans-serif" font-size="11" font-weight="700" text-anchor="middle">seq</text><rect x="754" y="550" width="28" height="34" rx="1" fill="#FFF8EE" stroke="#946B2D" stroke-width="1"/><text x="768" y="572" fill="#946B2D" font-family="Noto Sans CJK KR, Malgun Gothic, Aptos, Arial, sans-serif" font-size="11" font-weight="700" text-anchor="middle">gen</text><rect x="786" y="550" width="28" height="34" rx="1" fill="#FFF8EE" stroke="#946B2D" stroke-width="1"/><text x="800" y="572" fill="#946B2D" font-family="Noto Sans CJK KR, Malgun Gothic, Aptos, Arial, sans-serif" font-size="11" font-weight="700" text-anchor="middle">last</text><line x1="820" y1="567" x2="835" y2="567" stroke="#946B2D" stroke-width="2" stroke-linecap="round" stroke-dasharray="10 9" marker-end="url(#arrow)"/><rect x="835" y="532" width="38" height="70" rx="2" fill="#FFFFFF" stroke="#315F87" stroke-width="2"/><line x1="835" y1="549.5" x2="873" y2="549.5" stroke="#BCC5D0" stroke-width="1" stroke-linecap="round"/><line x1="835" y1="567" x2="873" y2="567" stroke="#BCC5D0" stroke-width="1" stroke-linecap="round"/><line x1="835" y1="584.5" x2="873" y2="584.5" stroke="#BCC5D0" stroke-width="1" stroke-linecap="round"/><line x1="854" y1="532" x2="854" y2="602" stroke="#BCC5D0" stroke-width="1" stroke-linecap="round"/><text x="854" y="620" fill="#667085" font-family="Noto Sans CJK KR, Malgun Gothic, Aptos, Arial, sans-serif" font-size="14" font-weight="600" text-anchor="middle">C0</text><line x1="873" y1="567" x2="1100" y2="567" stroke="#946B2D" stroke-width="2" stroke-linecap="round" stroke-dasharray="10 9" marker-end="url(#arrow)"/><rect x="1100" y="532" width="38" height="70" rx="2" fill="#FFFFFF" stroke="#315F87" stroke-width="2"/><line x1="1100" y1="549.5" x2="1138" y2="549.5" stroke="#BCC5D0" stroke-width="1" stroke-linecap="round"/><line x1="1100" y1="567" x2="1138" y2="567" stroke="#BCC5D0" stroke-width="1" stroke-linecap="round"/><line x1="1100" y1="584.5" x2="1138" y2="584.5" stroke="#BCC5D0" stroke-width="1" stroke-linecap="round"/><line x1="1119" y1="532" x2="1119" y2="602" stroke="#BCC5D0" stroke-width="1" stroke-linecap="round"/><text x="1119" y="620" fill="#667085" font-family="Noto Sans CJK KR, Malgun Gothic, Aptos, Arial, sans-serif" font-size="14" font-weight="600" text-anchor="middle">C1</text><line x1="1138" y1="567" x2="1262" y2="567" stroke="#946B2D" stroke-width="2" stroke-linecap="round" stroke-dasharray="10 9" marker-end="url(#arrow)"/><rect x="1262" y="532" width="38" height="70" rx="2" fill="#FFFFFF" stroke="#315F87" stroke-width="2"/><line x1="1262" y1="549.5" x2="1300" y2="549.5" stroke="#BCC5D0" stroke-width="1" stroke-linecap="round"/><line x1="1262" y1="567" x2="1300" y2="567" stroke="#BCC5D0" stroke-width="1" stroke-linecap="round"/><line x1="1262" y1="584.5" x2="1300" y2="584.5" stroke="#BCC5D0" stroke-width="1" stroke-linecap="round"/><line x1="1281" y1="532" x2="1281" y2="602" stroke="#BCC5D0" stroke-width="1" stroke-linecap="round"/><text x="1281" y="620" fill="#667085" font-family="Noto Sans CJK KR, Malgun Gothic, Aptos, Arial, sans-serif" font-size="14" font-weight="600" text-anchor="middle">C2</text><line x1="1300" y1="567" x2="1365" y2="567" stroke="#946B2D" stroke-width="2" stroke-linecap="round" stroke-dasharray="10 9" marker-end="url(#arrow)"/><line x1="1365" y1="567" x2="1365" y2="454" stroke="#946B2D" stroke-width="2" stroke-linecap="round" stroke-dasharray="7 6"/><text x="1380" y="548" fill="#946B2D" font-family="Noto Sans CJK KR, Malgun Gothic, Aptos, Arial, sans-serif" font-size="14" font-weight="700" text-anchor="start">정렬된 ACC 요청</text><text x="650" y="654" fill="#667085" font-family="Noto Sans CJK KR, Malgun Gothic, Aptos, Arial, sans-serif" font-size="15" font-weight="800" text-anchor="start" letter-spacing="1.1">PIPELINE 정렬</text><text x="650" y="704" fill="#667085" font-family="Noto Sans CJK KR, Malgun Gothic, Aptos, Arial, sans-serif" font-size="17" font-weight="700" text-anchor="start">데이터</text><line x1="760" y1="698" x2="1498" y2="698" stroke="#BCC5D0" stroke-width="2" stroke-linecap="round"/><text x="650" y="760" fill="#667085" font-family="Noto Sans CJK KR, Malgun Gothic, Aptos, Arial, sans-serif" font-size="17" font-weight="700" text-anchor="start">제어</text><line x1="760" y1="754" x2="1498" y2="754" stroke="#BCC5D0" stroke-width="2" stroke-linecap="round"/><rect x="790" y="681" width="120" height="28" rx="8" fill="#315F87" stroke="#315F87" stroke-width="2" opacity="1"/><text x="850" y="702" fill="#FFFFFF" font-family="Noto Sans CJK KR, Malgun Gothic, Aptos, Arial, sans-serif" font-size="13" font-weight="750" text-anchor="middle">R0</text><rect x="790" y="737" width="120" height="28" rx="8" fill="#946B2D" stroke="#946B2D" stroke-width="2" opacity="1"/><text x="850" y="758" fill="#FFFFFF" font-family="Noto Sans CJK KR, Malgun Gothic, Aptos, Arial, sans-serif" font-size="13" font-weight="750" text-anchor="middle">R0</text><rect x="955" y="681" width="120" height="28" rx="8" fill="#315F87" stroke="#315F87" stroke-width="2" opacity="1"/><text x="1015" y="702" fill="#FFFFFF" font-family="Noto Sans CJK KR, Malgun Gothic, Aptos, Arial, sans-serif" font-size="13" font-weight="750" text-anchor="middle">R1</text><rect x="955" y="737" width="120" height="28" rx="8" fill="#946B2D" stroke="#946B2D" stroke-width="2" opacity="1"/><text x="1015" y="758" fill="#FFFFFF" font-family="Noto Sans CJK KR, Malgun Gothic, Aptos, Arial, sans-serif" font-size="13" font-weight="750" text-anchor="middle">R1</text><rect x="1120" y="681" width="120" height="28" rx="8" fill="#315F87" stroke="#315F87" stroke-width="2" opacity="1"/><text x="1180" y="702" fill="#FFFFFF" font-family="Noto Sans CJK KR, Malgun Gothic, Aptos, Arial, sans-serif" font-size="13" font-weight="750" text-anchor="middle">R2</text><rect x="1120" y="737" width="120" height="28" rx="8" fill="#946B2D" stroke="#946B2D" stroke-width="2" opacity="1"/><text x="1180" y="758" fill="#FFFFFF" font-family="Noto Sans CJK KR, Malgun Gothic, Aptos, Arial, sans-serif" font-size="13" font-weight="750" text-anchor="middle">R2</text><rect x="1285" y="681" width="120" height="28" rx="8" fill="#55735A" stroke="#55735A" stroke-width="2" opacity="1"/><text x="1345" y="702" fill="#FFFFFF" font-family="Noto Sans CJK KR, Malgun Gothic, Aptos, Arial, sans-serif" font-size="13" font-weight="750" text-anchor="middle">ACC</text><rect x="1285" y="737" width="120" height="28" rx="8" fill="#55735A" stroke="#55735A" stroke-width="2" opacity="1"/><text x="1345" y="758" fill="#FFFFFF" font-family="Noto Sans CJK KR, Malgun Gothic, Aptos, Arial, sans-serif" font-size="13" font-weight="750" text-anchor="middle">ACC</text><text x="1120" y="802" fill="#315F87" font-family="Noto Sans CJK KR, Malgun Gothic, Aptos, Arial, sans-serif" font-size="16" font-weight="700" text-anchor="middle">같은 레지스터 경계 → 같은 정지 / 진행 결정</text><line x1="84" y1="846" x2="1516" y2="846" stroke="#BCC5D0" stroke-width="1.5" stroke-linecap="round"/><text x="84" y="874" fill="#667085" font-family="Noto Sans CJK KR, Malgun Gothic, Aptos, Arial, sans-serif" font-size="14" font-weight="650" text-anchor="start" letter-spacing="1.1">VORTEX · GEMV RTL 아키텍처</text><text x="1516" y="874" fill="#667085" font-family="Noto Sans CJK KR, Malgun Gothic, Aptos, Arial, sans-serif" font-size="13" font-weight="400" text-anchor="end">RTL: VX_gemm_unit_v2 / compute_core / acc_internal</text></svg>