<svg xmlns="http://www.w3.org/2000/svg" width="1600" height="900" viewBox="0 0 1600 900"><defs>
      <marker id="arrow" markerWidth="11" markerHeight="11" refX="9" refY="5.5" orient="auto" markerUnits="strokeWidth"><path d="M0,0 L10,5.5 L0,11 Z" fill="context-stroke"/></marker>
    </defs><rect width="1600" height="900" fill="#FFFFFF"/><rect x="0" y="0" width="6" height="900" fill="#315F87"/><text x="84" y="48" fill="#315F87" font-family="Noto Sans CJK KR, Malgun Gothic, Aptos, Arial, sans-serif" font-size="15" font-weight="800" text-anchor="start" letter-spacing="1.8">IMPROVE · 아키텍처</text><text x="1516" y="48" fill="#667085" font-family="Noto Sans CJK KR, Malgun Gothic, Aptos, Arial, sans-serif" font-size="16" font-weight="700" text-anchor="end" letter-spacing="1.2">07</text><text x="84" y="108" fill="#111827" font-family="Noto Sans CJK KR, Malgun Gothic, Aptos, Arial, sans-serif" font-size="38" font-weight="750" text-anchor="start" letter-spacing="-0.4">해결책 4: ACC 이중 버퍼링으로 연산과 출력 중첩</text><line x1="84" y1="132" x2="1516" y2="132" stroke="#BCC5D0" stroke-width="2" stroke-linecap="round"/><rect x="84" y="150" width="1432" height="118" rx="4" fill="#FAFAFA" stroke="#BCC5D0" stroke-width="2"/><circle cx="112" cy="177" r="4.5" fill="#315F87" stroke="none" stroke-width="0"/><text x="132" y="184" fill="#1F2937" font-family="Noto Sans CJK KR, Malgun Gothic, Aptos, Arial, sans-serif" font-size="20" font-weight="500" text-anchor="start">4개의 물리 ACC 뱅크를 실행 그룹 A와 B로 나눈다.</text><circle cx="112" cy="209" r="4.5" fill="#315F87" stroke="none" stroke-width="0"/><text x="132" y="216" fill="#1F2937" font-family="Noto Sans CJK KR, Malgun Gothic, Aptos, Arial, sans-serif" font-size="20" font-weight="500" text-anchor="start">한 그룹에서 연산하는 동안 다른 그룹의 출력을 배출한다.</text><circle cx="112" cy="241" r="4.5" fill="#315F87" stroke="none" stroke-width="0"/><text x="132" y="248" fill="#1F2937" font-family="Noto Sans CJK KR, Malgun Gothic, Aptos, Arial, sans-serif" font-size="20" font-weight="500" text-anchor="start">출력은 전역 pipeline_empty가 아니라 같은 그룹 충돌에서만 정지한다.</text><text x="100" y="304" fill="#667085" font-family="Noto Sans CJK KR, Malgun Gothic, Aptos, Arial, sans-serif" font-size="15" font-weight="800" text-anchor="start" letter-spacing="1.1">하드웨어 블록도</text><rect x="100" y="325" width="180" height="120" rx="3" fill="#FFFFFF" stroke="#315F87" stroke-width="2"/><rect x="110" y="335" width="32.5" height="26.666666666666668" rx="1" fill="#EEF3F7" stroke="#6F8DA7" stroke-width="1"/><text x="126.25" y="353.3333333333333" fill="#315F87" font-family="Noto Sans CJK KR, Malgun Gothic, Aptos, Arial, sans-serif" font-size="14" font-weight="700" text-anchor="middle">×+</text><rect x="152.5" y="335" width="32.5" height="26.666666666666668" rx="1" fill="#EEF3F7" stroke="#6F8DA7" stroke-width="1"/><text x="168.75" y="353.3333333333333" fill="#315F87" font-family="Noto Sans CJK KR, Malgun Gothic, Aptos, Arial, sans-serif" font-size="14" font-weight="700" text-anchor="middle">×+</text><rect x="195" y="335" width="32.5" height="26.666666666666668" rx="1" fill="#EEF3F7" stroke="#6F8DA7" stroke-width="1"/><text x="211.25" y="353.3333333333333" fill="#315F87" font-family="Noto Sans CJK KR, Malgun Gothic, Aptos, Arial, sans-serif" font-size="14" font-weight="700" text-anchor="middle">×+</text><rect x="237.5" y="335" width="32.5" height="26.666666666666668" rx="1" fill="#EEF3F7" stroke="#6F8DA7" stroke-width="1"/><text x="253.75" y="353.3333333333333" fill="#315F87" font-family="Noto Sans CJK KR, Malgun Gothic, Aptos, Arial, sans-serif" font-size="14" font-weight="700" text-anchor="middle">×+</text><rect x="110" y="371.6666666666667" width="32.5" height="26.666666666666668" rx="1" fill="#EEF3F7" stroke="#6F8DA7" stroke-width="1"/><text x="126.25" y="390" fill="#315F87" font-family="Noto Sans CJK KR, Malgun Gothic, Aptos, Arial, sans-serif" font-size="14" font-weight="700" text-anchor="middle">×+</text><rect x="152.5" y="371.6666666666667" width="32.5" height="26.666666666666668" rx="1" fill="#EEF3F7" stroke="#6F8DA7" stroke-width="1"/><text x="168.75" y="390" fill="#315F87" font-family="Noto Sans CJK KR, Malgun Gothic, Aptos, Arial, sans-serif" font-size="14" font-weight="700" text-anchor="middle">×+</text><rect x="195" y="371.6666666666667" width="32.5" height="26.666666666666668" rx="1" fill="#EEF3F7" stroke="#6F8DA7" stroke-width="1"/><text x="211.25" y="390" fill="#315F87" font-family="Noto Sans CJK KR, Malgun Gothic, Aptos, Arial, sans-serif" font-size="14" font-weight="700" text-anchor="middle">×+</text><rect x="237.5" y="371.6666666666667" width="32.5" height="26.666666666666668" rx="1" fill="#EEF3F7" stroke="#6F8DA7" stroke-width="1"/><text x="253.75" y="390" fill="#315F87" font-family="Noto Sans CJK KR, Malgun Gothic, Aptos, Arial, sans-serif" font-size="14" font-weight="700" text-anchor="middle">×+</text><rect x="110" y="408.33333333333337" width="32.5" height="26.666666666666668" rx="1" fill="#EEF3F7" stroke="#6F8DA7" stroke-width="1"/><text x="126.25" y="426.6666666666667" fill="#315F87" font-family="Noto Sans CJK KR, Malgun Gothic, Aptos, Arial, sans-serif" font-size="14" font-weight="700" text-anchor="middle">×+</text><rect x="152.5" y="408.33333333333337" width="32.5" height="26.666666666666668" rx="1" fill="#EEF3F7" stroke="#6F8DA7" stroke-width="1"/><text x="168.75" y="426.6666666666667" fill="#315F87" font-family="Noto Sans CJK KR, Malgun Gothic, Aptos, Arial, sans-serif" font-size="14" font-weight="700" text-anchor="middle">×+</text><rect x="195" y="408.33333333333337" width="32.5" height="26.666666666666668" rx="1" fill="#EEF3F7" stroke="#6F8DA7" stroke-width="1"/><text x="211.25" y="426.6666666666667" fill="#315F87" font-family="Noto Sans CJK KR, Malgun Gothic, Aptos, Arial, sans-serif" font-size="14" font-weight="700" text-anchor="middle">×+</text><rect x="237.5" y="408.33333333333337" width="32.5" height="26.666666666666668" rx="1" fill="#EEF3F7" stroke="#6F8DA7" stroke-width="1"/><text x="253.75" y="426.6666666666667" fill="#315F87" font-family="Noto Sans CJK KR, Malgun Gothic, Aptos, Arial, sans-serif" font-size="14" font-weight="700" text-anchor="middle">×+</text><text x="190" y="467" fill="#1F2937" font-family="Noto Sans CJK KR, Malgun Gothic, Aptos, Arial, sans-serif" font-size="16" font-weight="650" text-anchor="middle">연산 배열</text><line x1="280" y1="385" x2="350" y2="385" stroke="#315F87" stroke-width="3" stroke-linecap="round" marker-end="url(#arrow)"/><circle cx="380" cy="385" r="26" fill="#FFFFFF" stroke="#315F87" stroke-width="2"/><text x="380" y="391" fill="#315F87" font-family="Noto Sans CJK KR, Malgun Gothic, Aptos, Arial, sans-serif" font-size="16" font-weight="800" text-anchor="middle">G</text><text x="380" y="435" fill="#667085" font-family="Noto Sans CJK KR, Malgun Gothic, Aptos, Arial, sans-serif" font-size="13" font-weight="600" text-anchor="middle">그룹 선택</text><line x1="406" y1="375" x2="500" y2="350" stroke="#315F87" stroke-width="2" stroke-linecap="round" marker-end="url(#arrow)"/><line x1="406" y1="395" x2="500" y2="420" stroke="#315F87" stroke-width="2" stroke-linecap="round" marker-end="url(#arrow)"/><rect x="500" y="310" width="91" height="105" rx="2" fill="#F7F7F7" stroke="#55735A" stroke-width="2"/><line x1="500" y1="331" x2="591" y2="331" stroke="#BCC5D0" stroke-width="1" stroke-linecap="round"/><line x1="500" y1="352" x2="591" y2="352" stroke="#BCC5D0" stroke-width="1" stroke-linecap="round"/><line x1="500" y1="373" x2="591" y2="373" stroke="#BCC5D0" stroke-width="1" stroke-linecap="round"/><line x1="500" y1="394" x2="591" y2="394" stroke="#BCC5D0" stroke-width="1" stroke-linecap="round"/><text x="545.5" y="302" fill="#55735A" font-family="Noto Sans CJK KR, Malgun Gothic, Aptos, Arial, sans-serif" font-size="12" font-weight="700" text-anchor="middle">B0</text><rect x="599" y="310" width="91" height="105" rx="2" fill="#F7F7F7" stroke="#55735A" stroke-width="2"/><line x1="599" y1="331" x2="690" y2="331" stroke="#BCC5D0" stroke-width="1" stroke-linecap="round"/><line x1="599" y1="352" x2="690" y2="352" stroke="#BCC5D0" stroke-width="1" stroke-linecap="round"/><line x1="599" y1="373" x2="690" y2="373" stroke="#BCC5D0" stroke-width="1" stroke-linecap="round"/><line x1="599" y1="394" x2="690" y2="394" stroke="#BCC5D0" stroke-width="1" stroke-linecap="round"/><text x="644.5" y="302" fill="#55735A" font-family="Noto Sans CJK KR, Malgun Gothic, Aptos, Arial, sans-serif" font-size="12" font-weight="700" text-anchor="middle">B1</text><text x="595" y="437" fill="#1F2937" font-family="Noto Sans CJK KR, Malgun Gothic, Aptos, Arial, sans-serif" font-size="16" font-weight="650" text-anchor="middle">ACC 그룹 A · 뱅크 0–1</text><rect x="500" y="420" width="91" height="105" rx="2" fill="#F7F7F7" stroke="#55735A" stroke-width="2"/><line x1="500" y1="441" x2="591" y2="441" stroke="#BCC5D0" stroke-width="1" stroke-linecap="round"/><line x1="500" y1="462" x2="591" y2="462" stroke="#BCC5D0" stroke-width="1" stroke-linecap="round"/><line x1="500" y1="483" x2="591" y2="483" stroke="#BCC5D0" stroke-width="1" stroke-linecap="round"/><line x1="500" y1="504" x2="591" y2="504" stroke="#BCC5D0" stroke-width="1" stroke-linecap="round"/><text x="545.5" y="412" fill="#55735A" font-family="Noto Sans CJK KR, Malgun Gothic, Aptos, Arial, sans-serif" font-size="12" font-weight="700" text-anchor="middle">B0</text><rect x="599" y="420" width="91" height="105" rx="2" fill="#F7F7F7" stroke="#55735A" stroke-width="2"/><line x1="599" y1="441" x2="690" y2="441" stroke="#BCC5D0" stroke-width="1" stroke-linecap="round"/><line x1="599" y1="462" x2="690" y2="462" stroke="#BCC5D0" stroke-width="1" stroke-linecap="round"/><line x1="599" y1="483" x2="690" y2="483" stroke="#BCC5D0" stroke-width="1" stroke-linecap="round"/><line x1="599" y1="504" x2="690" y2="504" stroke="#BCC5D0" stroke-width="1" stroke-linecap="round"/><text x="644.5" y="412" fill="#55735A" font-family="Noto Sans CJK KR, Malgun Gothic, Aptos, Arial, sans-serif" font-size="12" font-weight="700" text-anchor="middle">B1</text><text x="595" y="547" fill="#1F2937" font-family="Noto Sans CJK KR, Malgun Gothic, Aptos, Arial, sans-serif" font-size="16" font-weight="650" text-anchor="middle">ACC 그룹 B · 뱅크 2–3</text><line x1="690" y1="360" x2="790" y2="385" stroke="#55735A" stroke-width="2" stroke-linecap="round" marker-end="url(#arrow)"/><line x1="690" y1="470" x2="790" y2="405" stroke="#55735A" stroke-width="2" stroke-linecap="round" marker-end="url(#arrow)"/><polygon points="790,360 862,360 890,400 862,440 790,440" fill="#FFFFFF" stroke="#946B2D" stroke-width="2"/><text x="838" y="406" fill="#946B2D" font-family="Noto Sans CJK KR, Malgun Gothic, Aptos, Arial, sans-serif" font-size="14" font-weight="750" text-anchor="middle">drain</text><line x1="890" y1="400" x2="970" y2="400" stroke="#55735A" stroke-width="3" stroke-linecap="round" marker-end="url(#arrow)"/><rect x="970" y="345" width="110" height="105" rx="3" fill="#FFFFFF" stroke="#BCC5D0" stroke-width="2"/><rect x="982" y="355" width="86" height="14.25" rx="1" fill="#E8EFF5" stroke="#55735A" stroke-width="1"/><rect x="982" y="374.25" width="86" height="14.25" rx="1" fill="#F7F7F7" stroke="#55735A" stroke-width="1"/><rect x="982" y="393.5" width="86" height="14.25" rx="1" fill="#F7F7F7" stroke="#55735A" stroke-width="1"/><rect x="982" y="412.75" width="86" height="14.25" rx="1" fill="#F7F7F7" stroke="#55735A" stroke-width="1"/><text x="1025" y="472" fill="#1F2937" font-family="Noto Sans CJK KR, Malgun Gothic, Aptos, Arial, sans-serif" font-size="16" font-weight="650" text-anchor="middle">출력 FIFO</text><line x1="1080" y1="400" x2="1160" y2="400" stroke="#55735A" stroke-width="3" stroke-linecap="round" marker-end="url(#arrow)"/><rect x="1160" y="345" width="190" height="100" rx="3" fill="#FFFFFF" stroke="#BCC5D0" stroke-width="2"/><text x="1172" y="367" fill="#667085" font-family="Noto Sans CJK KR, Malgun Gothic, Aptos, Arial, sans-serif" font-size="12" font-weight="700" text-anchor="start">cmd</text><rect x="1172" y="375" width="25" height="24" rx="1" fill="#EEF3F7" stroke="#55735A" stroke-width="2"/><rect x="1203" y="375" width="25" height="24" rx="1" fill="#EEF3F7" stroke="#55735A" stroke-width="2"/><rect x="1234" y="375" width="25" height="24" rx="1" fill="#EEF3F7" stroke="#55735A" stroke-width="2"/><text x="1172" y="423" fill="#667085" font-family="Noto Sans CJK KR, Malgun Gothic, Aptos, Arial, sans-serif" font-size="12" font-weight="700" text-anchor="start">addr</text><rect x="1212" y="407" width="17" height="20" rx="1" fill="#FFFFFF" stroke="#55735A" stroke-width="2"/><rect x="1234" y="407" width="17" height="20" rx="1" fill="#FFFFFF" stroke="#55735A" stroke-width="2"/><rect x="1256" y="407" width="17" height="20" rx="1" fill="#FFFFFF" stroke="#55735A" stroke-width="2"/><rect x="1278" y="407" width="17" height="20" rx="1" fill="#FFFFFF" stroke="#55735A" stroke-width="2"/><line x1="1282" y1="373" x2="1336" y2="373" stroke="#55735A" stroke-width="2" stroke-linecap="round"/><line x1="1282" y1="397" x2="1336" y2="397" stroke="#55735A" stroke-width="2" stroke-linecap="round"/><line x1="1282" y1="421" x2="1336" y2="421" stroke="#55735A" stroke-width="2" stroke-linecap="round"/><text x="1255" y="465" fill="#1F2937" font-family="Noto Sans CJK KR, Malgun Gothic, Aptos, Arial, sans-serif" font-size="16" font-weight="650" text-anchor="middle">출력 DMA</text><rect x="1370" y="345" width="110" height="100" rx="3" fill="#FFFFFF" stroke="#BCC5D0" stroke-width="2"/><line x1="1397.5" y1="345" x2="1397.5" y2="445" stroke="#BCC5D0" stroke-width="1" stroke-linecap="round"/><line x1="1438.2" y1="345" x2="1438.2" y2="445" stroke="#BCC5D0" stroke-width="1" stroke-linecap="round"/><line x1="1370" y1="365" x2="1480" y2="365" stroke="#BCC5D0" stroke-width="1" stroke-linecap="round"/><line x1="1370" y1="385" x2="1480" y2="385" stroke="#BCC5D0" stroke-width="1" stroke-linecap="round"/><line x1="1370" y1="405" x2="1480" y2="405" stroke="#BCC5D0" stroke-width="1" stroke-linecap="round"/><line x1="1370" y1="425" x2="1480" y2="425" stroke="#BCC5D0" stroke-width="1" stroke-linecap="round"/><text x="1383.2" y="363" fill="#315F87" font-family="Noto Sans CJK KR, Malgun Gothic, Aptos, Arial, sans-serif" font-size="11" font-weight="700" text-anchor="middle">tag</text><text x="1417.3" y="363" fill="#315F87" font-family="Noto Sans CJK KR, Malgun Gothic, Aptos, Arial, sans-serif" font-size="11" font-weight="700" text-anchor="middle">addr / seq</text><text x="1459.1" y="363" fill="#315F87" font-family="Noto Sans CJK KR, Malgun Gothic, Aptos, Arial, sans-serif" font-size="11" font-weight="700" text-anchor="middle">state</text><text x="1383.2" y="378" fill="#667085" font-family="Noto Sans CJK KR, Malgun Gothic, Aptos, Arial, sans-serif" font-size="11" font-weight="600" text-anchor="middle">0</text><text x="1383.2" y="398" fill="#667085" font-family="Noto Sans CJK KR, Malgun Gothic, Aptos, Arial, sans-serif" font-size="11" font-weight="600" text-anchor="middle">1</text><text x="1383.2" y="418" fill="#667085" font-family="Noto Sans CJK KR, Malgun Gothic, Aptos, Arial, sans-serif" font-size="11" font-weight="600" text-anchor="middle">2</text><text x="1383.2" y="438" fill="#667085" font-family="Noto Sans CJK KR, Malgun Gothic, Aptos, Arial, sans-serif" font-size="11" font-weight="600" text-anchor="middle">3</text><text x="1425" y="465" fill="#1F2937" font-family="Noto Sans CJK KR, Malgun Gothic, Aptos, Arial, sans-serif" font-size="16" font-weight="650" text-anchor="middle">그룹 소유자</text><text x="100" y="566" fill="#667085" font-family="Noto Sans CJK KR, Malgun Gothic, Aptos, Arial, sans-serif" font-size="15" font-weight="800" text-anchor="start" letter-spacing="1.1">타이밍도</text><text x="100" y="620" fill="#667085" font-family="Noto Sans CJK KR, Malgun Gothic, Aptos, Arial, sans-serif" font-size="17" font-weight="700" text-anchor="start">그룹 A</text><line x1="260" y1="614" x2="1460" y2="614" stroke="#BCC5D0" stroke-width="2" stroke-linecap="round"/><text x="100" y="680" fill="#667085" font-family="Noto Sans CJK KR, Malgun Gothic, Aptos, Arial, sans-serif" font-size="17" font-weight="700" text-anchor="start">그룹 B</text><line x1="260" y1="674" x2="1460" y2="674" stroke="#BCC5D0" stroke-width="2" stroke-linecap="round"/><text x="100" y="740" fill="#667085" font-family="Noto Sans CJK KR, Malgun Gothic, Aptos, Arial, sans-serif" font-size="17" font-weight="700" text-anchor="start">출력</text><line x1="260" y1="734" x2="1460" y2="734" stroke="#BCC5D0" stroke-width="2" stroke-linecap="round"/><rect x="290" y="597" width="330" height="32" rx="8" fill="#315F87" stroke="#315F87" stroke-width="2" opacity="1"/><text x="455" y="620" fill="#FFFFFF" font-family="Noto Sans CJK KR, Malgun Gothic, Aptos, Arial, sans-serif" font-size="16" font-weight="750" text-anchor="middle">A 연산</text><rect x="650" y="597" width="330" height="32" rx="8" fill="#55735A" stroke="#55735A" stroke-width="2" opacity="1"/><text x="815" y="620" fill="#FFFFFF" font-family="Noto Sans CJK KR, Malgun Gothic, Aptos, Arial, sans-serif" font-size="16" font-weight="750" text-anchor="middle">A drain</text><rect x="1010" y="597" width="330" height="32" rx="8" fill="#315F87" stroke="#315F87" stroke-width="2" opacity="1"/><text x="1175" y="620" fill="#FFFFFF" font-family="Noto Sans CJK KR, Malgun Gothic, Aptos, Arial, sans-serif" font-size="16" font-weight="750" text-anchor="middle">A 연산</text><rect x="290" y="657" width="330" height="32" rx="8" fill="#55735A" stroke="#55735A" stroke-width="2" opacity="1"/><text x="455" y="680" fill="#FFFFFF" font-family="Noto Sans CJK KR, Malgun Gothic, Aptos, Arial, sans-serif" font-size="16" font-weight="750" text-anchor="middle">B drain</text><rect x="650" y="657" width="330" height="32" rx="8" fill="#466E76" stroke="#466E76" stroke-width="2" opacity="1"/><text x="815" y="680" fill="#FFFFFF" font-family="Noto Sans CJK KR, Malgun Gothic, Aptos, Arial, sans-serif" font-size="16" font-weight="750" text-anchor="middle">B 연산</text><rect x="1010" y="657" width="330" height="32" rx="8" fill="#55735A" stroke="#55735A" stroke-width="2" opacity="1"/><text x="1175" y="680" fill="#FFFFFF" font-family="Noto Sans CJK KR, Malgun Gothic, Aptos, Arial, sans-serif" font-size="16" font-weight="750" text-anchor="middle">B drain</text><rect x="290" y="717" width="330" height="32" rx="8" fill="#55735A" stroke="#55735A" stroke-width="2" opacity="1"/><text x="455" y="740" fill="#FFFFFF" font-family="Noto Sans CJK KR, Malgun Gothic, Aptos, Arial, sans-serif" font-size="16" font-weight="750" text-anchor="middle">B read</text><rect x="650" y="717" width="330" height="32" rx="8" fill="#55735A" stroke="#55735A" stroke-width="2" opacity="1"/><text x="815" y="740" fill="#FFFFFF" font-family="Noto Sans CJK KR, Malgun Gothic, Aptos, Arial, sans-serif" font-size="16" font-weight="750" text-anchor="middle">A read</text><rect x="1010" y="717" width="330" height="32" rx="8" fill="#55735A" stroke="#55735A" stroke-width="2" opacity="1"/><text x="1175" y="740" fill="#FFFFFF" font-family="Noto Sans CJK KR, Malgun Gothic, Aptos, Arial, sans-serif" font-size="16" font-weight="750" text-anchor="middle">B read</text><line x1="84" y1="846" x2="1516" y2="846" stroke="#BCC5D0" stroke-width="1.5" stroke-linecap="round"/><text x="84" y="874" fill="#667085" font-family="Noto Sans CJK KR, Malgun Gothic, Aptos, Arial, sans-serif" font-size="14" font-weight="650" text-anchor="start" letter-spacing="1.1">VORTEX · GEMV RTL 아키텍처</text><text x="1516" y="874" fill="#667085" font-family="Noto Sans CJK KR, Malgun Gothic, Aptos, Arial, sans-serif" font-size="13" font-weight="400" text-anchor="end">2개 실행 그룹 · 로컬 충돌 게이팅</text></svg>