<svg xmlns="http://www.w3.org/2000/svg" width="1600" height="900" viewBox="0 0 1600 900"><defs>
      <marker id="arrow" markerWidth="11" markerHeight="11" refX="9" refY="5.5" orient="auto" markerUnits="strokeWidth"><path d="M0,0 L10,5.5 L0,11 Z" fill="context-stroke"/></marker>
    </defs><rect width="1600" height="900" fill="#FFFFFF"/><rect x="0" y="0" width="6" height="900" fill="#315F87"/><text x="84" y="48" fill="#315F87" font-family="Noto Sans CJK KR, Malgun Gothic, Aptos, Arial, sans-serif" font-size="15" font-weight="800" text-anchor="start" letter-spacing="1.8">IMPROVE · 아키텍처</text><text x="1516" y="48" fill="#667085" font-family="Noto Sans CJK KR, Malgun Gothic, Aptos, Arial, sans-serif" font-size="16" font-weight="700" text-anchor="end" letter-spacing="1.2">12</text><text x="84" y="108" fill="#111827" font-family="Noto Sans CJK KR, Malgun Gothic, Aptos, Arial, sans-serif" font-size="38" font-weight="750" text-anchor="start" letter-spacing="-0.4">IMPROVE 최종 아키텍처와 실행 흐름</text><line x1="84" y1="132" x2="1516" y2="132" stroke="#BCC5D0" stroke-width="2" stroke-linecap="round"/><rect x="84" y="150" width="1432" height="118" rx="4" fill="#FAFAFA" stroke="#BCC5D0" stroke-width="2"/><circle cx="112" cy="177" r="4.5" fill="#315F87" stroke="none" stroke-width="0"/><text x="132" y="184" fill="#1F2937" font-family="Noto Sans CJK KR, Malgun Gothic, Aptos, Arial, sans-serif" font-size="20" font-weight="500" text-anchor="start">최종 흐름: 부가 정보 승인 → 이동 중첩 → 탄력적 연산/ACC → 동시 배출.</text><circle cx="112" cy="209" r="4.5" fill="#315F87" stroke="none" stroke-width="0"/><text x="132" y="216" fill="#1F2937" font-family="Noto Sans CJK KR, Malgun Gothic, Aptos, Arial, sans-serif" font-size="20" font-weight="500" text-anchor="start">정확한 generation, 선행 처리 제한, 로컬 ACC 소유권으로 동시성 범위를 제한한다.</text><circle cx="112" cy="241" r="4.5" fill="#315F87" stroke="none" stroke-width="0"/><text x="132" y="248" fill="#1F2937" font-family="Noto Sans CJK KR, Malgun Gothic, Aptos, Arial, sans-serif" font-size="20" font-weight="500" text-anchor="start">아키텍처 완료 시점은 순서가 보장된 마지막 목적지 write이다.</text><text x="100" y="304" fill="#667085" font-family="Noto Sans CJK KR, Malgun Gothic, Aptos, Arial, sans-serif" font-size="15" font-weight="800" text-anchor="start" letter-spacing="1.1">최종 IMPROVE 하드웨어 블록도</text><rect x="80" y="325" width="135" height="105" rx="3" fill="#FFFFFF" stroke="#BCC5D0" stroke-width="2"/><line x1="127.75" y1="359.9" x2="133.5" y2="356.25" stroke="#946B2D" stroke-width="1.5" stroke-linecap="round" marker-end="url(#arrow)"/><line x1="161.5" y1="356.25" x2="167.25" y2="359.9" stroke="#946B2D" stroke-width="1.5" stroke-linecap="round" marker-end="url(#arrow)"/><line x1="177.25" y1="378.9" x2="161.5" y2="387.15" stroke="#946B2D" stroke-width="1.5" stroke-linecap="round" marker-end="url(#arrow)"/><line x1="133.5" y1="387.15" x2="117.75" y2="378.9" stroke="#946B2D" stroke-width="1.5" stroke-linecap="round" marker-end="url(#arrow)"/><circle cx="113.75" cy="364.9" r="15" fill="#FFFFFF" stroke="#946B2D" stroke-width="2"/><text x="113.75" y="369.9" fill="#946B2D" font-family="Noto Sans CJK KR, Malgun Gothic, Aptos, Arial, sans-serif" font-size="12" font-weight="750" text-anchor="middle">I</text><circle cx="147.5" cy="351.25" r="15" fill="#FFFFFF" stroke="#946B2D" stroke-width="2"/><text x="147.5" y="356.25" fill="#946B2D" font-family="Noto Sans CJK KR, Malgun Gothic, Aptos, Arial, sans-serif" font-size="12" font-weight="750" text-anchor="middle">M</text><circle cx="181.25" cy="364.9" r="15" fill="#FFFFFF" stroke="#946B2D" stroke-width="2"/><text x="181.25" y="369.9" fill="#946B2D" font-family="Noto Sans CJK KR, Malgun Gothic, Aptos, Arial, sans-serif" font-size="12" font-weight="750" text-anchor="middle">C</text><circle cx="147.5" cy="391.15" r="15" fill="#FFFFFF" stroke="#946B2D" stroke-width="2"/><text x="147.5" y="396.15" fill="#946B2D" font-family="Noto Sans CJK KR, Malgun Gothic, Aptos, Arial, sans-serif" font-size="12" font-weight="750" text-anchor="middle">D</text><text x="147.5" y="450" fill="#1F2937" font-family="Noto Sans CJK KR, Malgun Gothic, Aptos, Arial, sans-serif" font-size="16" font-weight="650" text-anchor="middle">승인 FSM</text><line x1="215" y1="380" x2="260" y2="380" stroke="#946B2D" stroke-width="2" stroke-linecap="round" stroke-dasharray="10 9" marker-end="url(#arrow)"/><rect x="260" y="320" width="185" height="110" rx="3" fill="#FFFFFF" stroke="#BCC5D0" stroke-width="2"/><line x1="306.25" y1="320" x2="306.25" y2="430" stroke="#BCC5D0" stroke-width="1" stroke-linecap="round"/><line x1="374.7" y1="320" x2="374.7" y2="430" stroke="#BCC5D0" stroke-width="1" stroke-linecap="round"/><line x1="260" y1="342" x2="445" y2="342" stroke="#BCC5D0" stroke-width="1" stroke-linecap="round"/><line x1="260" y1="364" x2="445" y2="364" stroke="#BCC5D0" stroke-width="1" stroke-linecap="round"/><line x1="260" y1="386" x2="445" y2="386" stroke="#BCC5D0" stroke-width="1" stroke-linecap="round"/><line x1="260" y1="408" x2="445" y2="408" stroke="#BCC5D0" stroke-width="1" stroke-linecap="round"/><text x="282.2" y="338" fill="#315F87" font-family="Noto Sans CJK KR, Malgun Gothic, Aptos, Arial, sans-serif" font-size="11" font-weight="700" text-anchor="middle">tag</text><text x="339.55" y="338" fill="#315F87" font-family="Noto Sans CJK KR, Malgun Gothic, Aptos, Arial, sans-serif" font-size="11" font-weight="700" text-anchor="middle">addr / seq</text><text x="409.85" y="338" fill="#315F87" font-family="Noto Sans CJK KR, Malgun Gothic, Aptos, Arial, sans-serif" font-size="11" font-weight="700" text-anchor="middle">state</text><text x="282.2" y="356.3" fill="#667085" font-family="Noto Sans CJK KR, Malgun Gothic, Aptos, Arial, sans-serif" font-size="11" font-weight="600" text-anchor="middle">0</text><text x="282.2" y="378.3" fill="#667085" font-family="Noto Sans CJK KR, Malgun Gothic, Aptos, Arial, sans-serif" font-size="11" font-weight="600" text-anchor="middle">1</text><text x="282.2" y="400.3" fill="#667085" font-family="Noto Sans CJK KR, Malgun Gothic, Aptos, Arial, sans-serif" font-size="11" font-weight="600" text-anchor="middle">2</text><text x="282.2" y="422.3" fill="#667085" font-family="Noto Sans CJK KR, Malgun Gothic, Aptos, Arial, sans-serif" font-size="11" font-weight="600" text-anchor="middle">3</text><text x="352.5" y="450" fill="#1F2937" font-family="Noto Sans CJK KR, Malgun Gothic, Aptos, Arial, sans-serif" font-size="16" font-weight="650" text-anchor="middle">명령 태그</text><line x1="445" y1="380" x2="490" y2="380" stroke="#466E76" stroke-width="2" stroke-linecap="round" marker-end="url(#arrow)"/><rect x="490" y="325" width="160" height="100" rx="3" fill="#FFFFFF" stroke="#BCC5D0" stroke-width="2"/><text x="502" y="347" fill="#667085" font-family="Noto Sans CJK KR, Malgun Gothic, Aptos, Arial, sans-serif" font-size="12" font-weight="700" text-anchor="start">cmd</text><rect x="502" y="355" width="25" height="24" rx="1" fill="#EEF3F7" stroke="#466E76" stroke-width="2"/><rect x="533" y="355" width="25" height="24" rx="1" fill="#EEF3F7" stroke="#466E76" stroke-width="2"/><rect x="564" y="355" width="25" height="24" rx="1" fill="#EEF3F7" stroke="#466E76" stroke-width="2"/><text x="502" y="403" fill="#667085" font-family="Noto Sans CJK KR, Malgun Gothic, Aptos, Arial, sans-serif" font-size="12" font-weight="700" text-anchor="start">addr</text><rect x="542" y="387" width="17" height="20" rx="1" fill="#FFFFFF" stroke="#466E76" stroke-width="2"/><rect x="564" y="387" width="17" height="20" rx="1" fill="#FFFFFF" stroke="#466E76" stroke-width="2"/><rect x="586" y="387" width="17" height="20" rx="1" fill="#FFFFFF" stroke="#466E76" stroke-width="2"/><rect x="608" y="387" width="17" height="20" rx="1" fill="#FFFFFF" stroke="#466E76" stroke-width="2"/><line x1="582" y1="353" x2="636" y2="353" stroke="#466E76" stroke-width="2" stroke-linecap="round"/><line x1="582" y1="377" x2="636" y2="377" stroke="#466E76" stroke-width="2" stroke-linecap="round"/><line x1="582" y1="401" x2="636" y2="401" stroke="#466E76" stroke-width="2" stroke-linecap="round"/><text x="570" y="445" fill="#1F2937" font-family="Noto Sans CJK KR, Malgun Gothic, Aptos, Arial, sans-serif" font-size="16" font-weight="650" text-anchor="middle">HBM + S/Z DMA</text><line x1="650" y1="380" x2="700" y2="380" stroke="#466E76" stroke-width="2" stroke-linecap="round" marker-end="url(#arrow)"/><rect x="700" y="320" width="39" height="110" rx="2" fill="#F7F7F7" stroke="#55735A" stroke-width="2"/><line x1="700" y1="342" x2="739" y2="342" stroke="#BCC5D0" stroke-width="1" stroke-linecap="round"/><line x1="700" y1="364" x2="739" y2="364" stroke="#BCC5D0" stroke-width="1" stroke-linecap="round"/><line x1="700" y1="386" x2="739" y2="386" stroke="#BCC5D0" stroke-width="1" stroke-linecap="round"/><line x1="700" y1="408" x2="739" y2="408" stroke="#BCC5D0" stroke-width="1" stroke-linecap="round"/><text x="719.5" y="312" fill="#55735A" font-family="Noto Sans CJK KR, Malgun Gothic, Aptos, Arial, sans-serif" font-size="12" font-weight="700" text-anchor="middle">B0</text><rect x="747" y="320" width="39" height="110" rx="2" fill="#F7F7F7" stroke="#55735A" stroke-width="2"/><line x1="747" y1="342" x2="786" y2="342" stroke="#BCC5D0" stroke-width="1" stroke-linecap="round"/><line x1="747" y1="364" x2="786" y2="364" stroke="#BCC5D0" stroke-width="1" stroke-linecap="round"/><line x1="747" y1="386" x2="786" y2="386" stroke="#BCC5D0" stroke-width="1" stroke-linecap="round"/><line x1="747" y1="408" x2="786" y2="408" stroke="#BCC5D0" stroke-width="1" stroke-linecap="round"/><text x="766.5" y="312" fill="#55735A" font-family="Noto Sans CJK KR, Malgun Gothic, Aptos, Arial, sans-serif" font-size="12" font-weight="700" text-anchor="middle">B1</text><rect x="794" y="320" width="39" height="110" rx="2" fill="#F7F7F7" stroke="#55735A" stroke-width="2"/><line x1="794" y1="342" x2="833" y2="342" stroke="#BCC5D0" stroke-width="1" stroke-linecap="round"/><line x1="794" y1="364" x2="833" y2="364" stroke="#BCC5D0" stroke-width="1" stroke-linecap="round"/><line x1="794" y1="386" x2="833" y2="386" stroke="#BCC5D0" stroke-width="1" stroke-linecap="round"/><line x1="794" y1="408" x2="833" y2="408" stroke="#BCC5D0" stroke-width="1" stroke-linecap="round"/><text x="813.5" y="312" fill="#55735A" font-family="Noto Sans CJK KR, Malgun Gothic, Aptos, Arial, sans-serif" font-size="12" font-weight="700" text-anchor="middle">B2</text><rect x="841" y="320" width="39" height="110" rx="2" fill="#F7F7F7" stroke="#55735A" stroke-width="2"/><line x1="841" y1="342" x2="880" y2="342" stroke="#BCC5D0" stroke-width="1" stroke-linecap="round"/><line x1="841" y1="364" x2="880" y2="364" stroke="#BCC5D0" stroke-width="1" stroke-linecap="round"/><line x1="841" y1="386" x2="880" y2="386" stroke="#BCC5D0" stroke-width="1" stroke-linecap="round"/><line x1="841" y1="408" x2="880" y2="408" stroke="#BCC5D0" stroke-width="1" stroke-linecap="round"/><text x="860.5" y="312" fill="#55735A" font-family="Noto Sans CJK KR, Malgun Gothic, Aptos, Arial, sans-serif" font-size="12" font-weight="700" text-anchor="middle">B3</text><text x="790" y="452" fill="#1F2937" font-family="Noto Sans CJK KR, Malgun Gothic, Aptos, Arial, sans-serif" font-size="16" font-weight="650" text-anchor="middle">TMEM 뱅크</text><line x1="880" y1="380" x2="930" y2="380" stroke="#315F87" stroke-width="2" stroke-linecap="round" marker-end="url(#arrow)"/><polygon points="952,325 1040,353 1040,397 952,425 930,397 930,353" fill="#FFFFFF" stroke="#946B2D" stroke-width="2"/><line x1="902" y1="339" x2="934" y2="339" stroke="#946B2D" stroke-width="1.5" stroke-linecap="round"/><line x1="902" y1="363" x2="934" y2="363" stroke="#946B2D" stroke-width="1.5" stroke-linecap="round"/><line x1="902" y1="387" x2="934" y2="387" stroke="#946B2D" stroke-width="1.5" stroke-linecap="round"/><line x1="902" y1="411" x2="934" y2="411" stroke="#946B2D" stroke-width="1.5" stroke-linecap="round"/><text x="985" y="381" fill="#946B2D" font-family="Noto Sans CJK KR, Malgun Gothic, Aptos, Arial, sans-serif" font-size="14" font-weight="800" text-anchor="middle">PRI</text><text x="985" y="445" fill="#1F2937" font-family="Noto Sans CJK KR, Malgun Gothic, Aptos, Arial, sans-serif" font-size="16" font-weight="650" text-anchor="middle">Ready 중재기</text><line x1="1040" y1="380" x2="1090" y2="380" stroke="#315F87" stroke-width="2" stroke-linecap="round" marker-end="url(#arrow)"/><rect x="1090" y="315" width="170" height="120" rx="3" fill="#FFFFFF" stroke="#315F87" stroke-width="2"/><rect x="1100" y="325" width="30" height="26.666666666666668" rx="1" fill="#EEF3F7" stroke="#6F8DA7" stroke-width="1"/><text x="1115" y="343.3333333333333" fill="#315F87" font-family="Noto Sans CJK KR, Malgun Gothic, Aptos, Arial, sans-serif" font-size="14" font-weight="700" text-anchor="middle">×+</text><rect x="1140" y="325" width="30" height="26.666666666666668" rx="1" fill="#EEF3F7" stroke="#6F8DA7" stroke-width="1"/><text x="1155" y="343.3333333333333" fill="#315F87" font-family="Noto Sans CJK KR, Malgun Gothic, Aptos, Arial, sans-serif" font-size="14" font-weight="700" text-anchor="middle">×+</text><rect x="1180" y="325" width="30" height="26.666666666666668" rx="1" fill="#EEF3F7" stroke="#6F8DA7" stroke-width="1"/><text x="1195" y="343.3333333333333" fill="#315F87" font-family="Noto Sans CJK KR, Malgun Gothic, Aptos, Arial, sans-serif" font-size="14" font-weight="700" text-anchor="middle">×+</text><rect x="1220" y="325" width="30" height="26.666666666666668" rx="1" fill="#EEF3F7" stroke="#6F8DA7" stroke-width="1"/><text x="1235" y="343.3333333333333" fill="#315F87" font-family="Noto Sans CJK KR, Malgun Gothic, Aptos, Arial, sans-serif" font-size="14" font-weight="700" text-anchor="middle">×+</text><rect x="1100" y="361.6666666666667" width="30" height="26.666666666666668" rx="1" fill="#EEF3F7" stroke="#6F8DA7" stroke-width="1"/><text x="1115" y="380" fill="#315F87" font-family="Noto Sans CJK KR, Malgun Gothic, Aptos, Arial, sans-serif" font-size="14" font-weight="700" text-anchor="middle">×+</text><rect x="1140" y="361.6666666666667" width="30" height="26.666666666666668" rx="1" fill="#EEF3F7" stroke="#6F8DA7" stroke-width="1"/><text x="1155" y="380" fill="#315F87" font-family="Noto Sans CJK KR, Malgun Gothic, Aptos, Arial, sans-serif" font-size="14" font-weight="700" text-anchor="middle">×+</text><rect x="1180" y="361.6666666666667" width="30" height="26.666666666666668" rx="1" fill="#EEF3F7" stroke="#6F8DA7" stroke-width="1"/><text x="1195" y="380" fill="#315F87" font-family="Noto Sans CJK KR, Malgun Gothic, Aptos, Arial, sans-serif" font-size="14" font-weight="700" text-anchor="middle">×+</text><rect x="1220" y="361.6666666666667" width="30" height="26.666666666666668" rx="1" fill="#EEF3F7" stroke="#6F8DA7" stroke-width="1"/><text x="1235" y="380" fill="#315F87" font-family="Noto Sans CJK KR, Malgun Gothic, Aptos, Arial, sans-serif" font-size="14" font-weight="700" text-anchor="middle">×+</text><rect x="1100" y="398.33333333333337" width="30" height="26.666666666666668" rx="1" fill="#EEF3F7" stroke="#6F8DA7" stroke-width="1"/><text x="1115" y="416.6666666666667" fill="#315F87" font-family="Noto Sans CJK KR, Malgun Gothic, Aptos, Arial, sans-serif" font-size="14" font-weight="700" text-anchor="middle">×+</text><rect x="1140" y="398.33333333333337" width="30" height="26.666666666666668" rx="1" fill="#EEF3F7" stroke="#6F8DA7" stroke-width="1"/><text x="1155" y="416.6666666666667" fill="#315F87" font-family="Noto Sans CJK KR, Malgun Gothic, Aptos, Arial, sans-serif" font-size="14" font-weight="700" text-anchor="middle">×+</text><rect x="1180" y="398.33333333333337" width="30" height="26.666666666666668" rx="1" fill="#EEF3F7" stroke="#6F8DA7" stroke-width="1"/><text x="1195" y="416.6666666666667" fill="#315F87" font-family="Noto Sans CJK KR, Malgun Gothic, Aptos, Arial, sans-serif" font-size="14" font-weight="700" text-anchor="middle">×+</text><rect x="1220" y="398.33333333333337" width="30" height="26.666666666666668" rx="1" fill="#EEF3F7" stroke="#6F8DA7" stroke-width="1"/><text x="1235" y="416.6666666666667" fill="#315F87" font-family="Noto Sans CJK KR, Malgun Gothic, Aptos, Arial, sans-serif" font-size="14" font-weight="700" text-anchor="middle">×+</text><text x="1175" y="457" fill="#1F2937" font-family="Noto Sans CJK KR, Malgun Gothic, Aptos, Arial, sans-serif" font-size="16" font-weight="650" text-anchor="middle">탄력적 연산</text><line x1="1260" y1="380" x2="1310" y2="380" stroke="#55735A" stroke-width="2" stroke-linecap="round" marker-end="url(#arrow)"/><rect x="1310" y="320" width="31.5" height="110" rx="2" fill="#F7F7F7" stroke="#55735A" stroke-width="2"/><line x1="1310" y1="342" x2="1341.5" y2="342" stroke="#BCC5D0" stroke-width="1" stroke-linecap="round"/><line x1="1310" y1="364" x2="1341.5" y2="364" stroke="#BCC5D0" stroke-width="1" stroke-linecap="round"/><line x1="1310" y1="386" x2="1341.5" y2="386" stroke="#BCC5D0" stroke-width="1" stroke-linecap="round"/><line x1="1310" y1="408" x2="1341.5" y2="408" stroke="#BCC5D0" stroke-width="1" stroke-linecap="round"/><text x="1325.75" y="312" fill="#55735A" font-family="Noto Sans CJK KR, Malgun Gothic, Aptos, Arial, sans-serif" font-size="12" font-weight="700" text-anchor="middle">B0</text><rect x="1349.5" y="320" width="31.5" height="110" rx="2" fill="#F7F7F7" stroke="#55735A" stroke-width="2"/><line x1="1349.5" y1="342" x2="1381" y2="342" stroke="#BCC5D0" stroke-width="1" stroke-linecap="round"/><line x1="1349.5" y1="364" x2="1381" y2="364" stroke="#BCC5D0" stroke-width="1" stroke-linecap="round"/><line x1="1349.5" y1="386" x2="1381" y2="386" stroke="#BCC5D0" stroke-width="1" stroke-linecap="round"/><line x1="1349.5" y1="408" x2="1381" y2="408" stroke="#BCC5D0" stroke-width="1" stroke-linecap="round"/><text x="1365.25" y="312" fill="#55735A" font-family="Noto Sans CJK KR, Malgun Gothic, Aptos, Arial, sans-serif" font-size="12" font-weight="700" text-anchor="middle">B1</text><rect x="1389" y="320" width="31.5" height="110" rx="2" fill="#F7F7F7" stroke="#55735A" stroke-width="2"/><line x1="1389" y1="342" x2="1420.5" y2="342" stroke="#BCC5D0" stroke-width="1" stroke-linecap="round"/><line x1="1389" y1="364" x2="1420.5" y2="364" stroke="#BCC5D0" stroke-width="1" stroke-linecap="round"/><line x1="1389" y1="386" x2="1420.5" y2="386" stroke="#BCC5D0" stroke-width="1" stroke-linecap="round"/><line x1="1389" y1="408" x2="1420.5" y2="408" stroke="#BCC5D0" stroke-width="1" stroke-linecap="round"/><text x="1404.75" y="312" fill="#55735A" font-family="Noto Sans CJK KR, Malgun Gothic, Aptos, Arial, sans-serif" font-size="12" font-weight="700" text-anchor="middle">B2</text><rect x="1428.5" y="320" width="31.5" height="110" rx="2" fill="#F7F7F7" stroke="#55735A" stroke-width="2"/><line x1="1428.5" y1="342" x2="1460" y2="342" stroke="#BCC5D0" stroke-width="1" stroke-linecap="round"/><line x1="1428.5" y1="364" x2="1460" y2="364" stroke="#BCC5D0" stroke-width="1" stroke-linecap="round"/><line x1="1428.5" y1="386" x2="1460" y2="386" stroke="#BCC5D0" stroke-width="1" stroke-linecap="round"/><line x1="1428.5" y1="408" x2="1460" y2="408" stroke="#BCC5D0" stroke-width="1" stroke-linecap="round"/><text x="1444.25" y="312" fill="#55735A" font-family="Noto Sans CJK KR, Malgun Gothic, Aptos, Arial, sans-serif" font-size="12" font-weight="700" text-anchor="middle">B3</text><text x="1385" y="452" fill="#1F2937" font-family="Noto Sans CJK KR, Malgun Gothic, Aptos, Arial, sans-serif" font-size="16" font-weight="650" text-anchor="middle">ACC A / B</text><rect x="1475" y="325" width="65" height="100" rx="3" fill="#FFFFFF" stroke="#BCC5D0" stroke-width="2"/><rect x="1487" y="335" width="41" height="13" rx="1" fill="#E8EFF5" stroke="#55735A" stroke-width="1"/><rect x="1487" y="353" width="41" height="13" rx="1" fill="#F7F7F7" stroke="#55735A" stroke-width="1"/><rect x="1487" y="371" width="41" height="13" rx="1" fill="#F7F7F7" stroke="#55735A" stroke-width="1"/><rect x="1487" y="389" width="41" height="13" rx="1" fill="#F7F7F7" stroke="#55735A" stroke-width="1"/><text x="1507.5" y="447" fill="#1F2937" font-family="Noto Sans CJK KR, Malgun Gothic, Aptos, Arial, sans-serif" font-size="16" font-weight="650" text-anchor="middle">drain</text><line x1="1460" y1="380" x2="1475" y2="380" stroke="#55735A" stroke-width="2" stroke-linecap="round" marker-end="url(#arrow)"/><text x="100" y="552" fill="#667085" font-family="Noto Sans CJK KR, Malgun Gothic, Aptos, Arial, sans-serif" font-size="15" font-weight="800" text-anchor="start" letter-spacing="1.1">실행 타이밍</text><text x="100" y="606" fill="#667085" font-family="Noto Sans CJK KR, Malgun Gothic, Aptos, Arial, sans-serif" font-size="17" font-weight="700" text-anchor="start">DMA N+1</text><line x1="290" y1="600" x2="1460" y2="600" stroke="#BCC5D0" stroke-width="2" stroke-linecap="round"/><text x="100" y="666" fill="#667085" font-family="Noto Sans CJK KR, Malgun Gothic, Aptos, Arial, sans-serif" font-size="17" font-weight="700" text-anchor="start">N 연산</text><line x1="290" y1="660" x2="1460" y2="660" stroke="#BCC5D0" stroke-width="2" stroke-linecap="round"/><text x="100" y="726" fill="#667085" font-family="Noto Sans CJK KR, Malgun Gothic, Aptos, Arial, sans-serif" font-size="17" font-weight="700" text-anchor="start">N−1 drain</text><line x1="290" y1="720" x2="1460" y2="720" stroke="#BCC5D0" stroke-width="2" stroke-linecap="round"/><text x="100" y="786" fill="#667085" font-family="Noto Sans CJK KR, Malgun Gothic, Aptos, Arial, sans-serif" font-size="17" font-weight="700" text-anchor="start">Retire</text><line x1="290" y1="780" x2="1460" y2="780" stroke="#BCC5D0" stroke-width="2" stroke-linecap="round"/><rect x="330" y="583" width="520" height="32" rx="8" fill="#466E76" stroke="#466E76" stroke-width="2" opacity="1"/><text x="590" y="606" fill="#FFFFFF" font-family="Noto Sans CJK KR, Malgun Gothic, Aptos, Arial, sans-serif" font-size="16" font-weight="750" text-anchor="middle">N+1 선행 읽기 / 설치</text><rect x="520" y="643" width="470" height="32" rx="8" fill="#315F87" stroke="#315F87" stroke-width="2" opacity="1"/><text x="755" y="666" fill="#FFFFFF" font-family="Noto Sans CJK KR, Malgun Gothic, Aptos, Arial, sans-serif" font-size="16" font-weight="750" text-anchor="middle">N 연산</text><rect x="330" y="703" width="430" height="32" rx="8" fill="#55735A" stroke="#55735A" stroke-width="2" opacity="1"/><text x="545" y="726" fill="#FFFFFF" font-family="Noto Sans CJK KR, Malgun Gothic, Aptos, Arial, sans-serif" font-size="16" font-weight="750" text-anchor="middle">N−1 drain</text><rect x="990" y="763" width="270" height="32" rx="8" fill="#55735A" stroke="#55735A" stroke-width="2" opacity="1"/><text x="1125" y="786" fill="#FFFFFF" font-family="Noto Sans CJK KR, Malgun Gothic, Aptos, Arial, sans-serif" font-size="16" font-weight="750" text-anchor="middle">마지막 write → retire</text><line x1="84" y1="846" x2="1516" y2="846" stroke="#BCC5D0" stroke-width="1.5" stroke-linecap="round"/><text x="84" y="874" fill="#667085" font-family="Noto Sans CJK KR, Malgun Gothic, Aptos, Arial, sans-serif" font-size="14" font-weight="650" text-anchor="start" letter-spacing="1.1">VORTEX · GEMV RTL 아키텍처</text><text x="1516" y="874" fill="#667085" font-family="Noto Sans CJK KR, Malgun Gothic, Aptos, Arial, sans-serif" font-size="13" font-weight="400" text-anchor="end">최종 IMPROVE 흐름</text></svg>